<?xml version="1.0" encoding="UTF-8"?>
<svg id="Layer_1_copy" xmlns="http://www.w3.org/2000/svg" version="1.1" viewBox="0 0 3186.7 1425.4">
  <!-- Generator: Adobe Illustrator 30.2.1, SVG Export Plug-In . SVG Version: 2.1.1 Build 1)  -->
  <defs>
    <style>
      .st0 {
        fill: #cd5c5c;
      }

      .st1 {
        fill: #fff;
      }
    </style>
  </defs>
  <g>
    <g>
      <rect class="st1" x="1139.3" y="903.3" width="359.7" height="61.4"/>
      <rect class="st1" x="1139.3" y="681.7" width="359.7" height="61.4"/>
      <rect class="st1" x="1139.3" y="469.1" width="359.7" height="61.4"/>
    </g>
    <path class="st1" d="M1836.9,907.4c-111.6,0-194.3-80.9-194.3-190.8s82.7-190.2,194.3-190.2,101.6,18.3,140,58.5l46.1-44.3c-45.5-51.4-112.2-77.4-188.4-77.4-151.2,0-262.9,106.9-262.9,253.4s111.6,254,261.7,254,144.1-27.2,189.6-78l-46.1-44.9c-38.4,40.8-85.1,59.7-140,59.7h0Z"/>
    <path class="st1" d="M2480.2,469.1v213.2h-285.3v-213.2h-70.3v495.6h70.3v-220.9h285.3v220.9h70.9v-495.6h-70.9Z"/>
    <path class="st1" d="M2923.8,463.2c-152.4,0-264,108.1-264,253.4s111.6,254,264,254,262.9-108.1,262.9-254-112.2-253.4-262.9-253.4ZM2923.8,907.4c-111.1,0-193.8-80.9-193.8-190.8s82.7-190.2,193.8-190.2,192,80.3,192,190.2-82.1,190.8-192,190.8Z"/>
  </g>
  <path class="st0" d="M1081.1,986c0,125.1-60,246.9-154.3,329.1-123.4,108-325.7,116.6-481.7,102.9C189.7,1397.4,1.1,1213.9,1.1,986s34.3-195.4,94.3-269.1C-69.2,509.4-.6,200.8,224,70.5,380-18.6,664.6-22,824,53.4c217.7,101.1,327.4,387.4,200.6,598.3-3.4,6.9-42.8,58.3-37.7,65.1,58.3,73.7,94.3,166.3,94.3,269.1ZM680,437.4c0-56.6-46.3-104.6-104.6-104.6h-70.3c-56.6,0-102.9,48-102.9,104.6v18.9c0,56.6,46.3,102.9,102.9,102.9h70.3c58.3,0,104.6-46.3,104.6-102.9v-18.9h0ZM680,986c0-58.3-46.3-104.6-104.6-104.6h-70.3c-56.6,0-102.9,46.3-102.9,104.6v17.1c0,58.3,46.3,104.6,102.9,104.6h70.3c58.3,0,104.6-46.3,104.6-104.6v-17.1h0Z"/>
</svg>