<?xml version="1.0" encoding="UTF-8"?>
<svg id="Layer_2" data-name="Layer 2" xmlns="http://www.w3.org/2000/svg" viewBox="0 0 206.04 110">
  <defs>
    <style>
      .cls-1 {
        fill: #1F1F20;
      }
    </style>
  </defs>
  <g id="Outlined">
    <g id="options_copy" data-name="options copy">
      <g>
        <g id="Artwork_39" data-name="Artwork 39">
          <path class="cls-1" d="M93.03,5.01h-9.47s-.01,0-.01.01v18.43c0,.2-.16.35-.35.35h-4.58c-.2,0-.35-.16-.35-.35V5.03s0-.01-.01-.01h-9.45c-.2,0-.35-.16-.35-.35V.53c0-.2.16-.35.35-.35h24.23c.2,0,.35.16.35.35v4.13c0,.2-.16.35-.35.35ZM160.34.17h-4.58c-.2,0-.35.16-.35.35v22.93c0,.2.16.35.35.35h4.58c.2,0,.35-.16.35-.35V.53c0-.2-.16-.35-.35-.35ZM197.32,23.24c.1.09.14.23.09.36-.05.13-.17.21-.31.21h-7.05c-.08,0-.15-.03-.21-.08l-7.74-6.7c-.07-.06-.11-.15-.11-.25s.04-.18.11-.25l3.52-3.05c.12-.11.3-.11.43,0l11.27,9.75ZM185.62,10.5c.06.05.14.08.21.08s.15-.03.21-.08l11.27-9.75c.1-.09.14-.23.09-.36-.05-.13-.17-.21-.31-.21h-7.05c-.08,0-.15.03-.21.08l-7.74,6.7c-.07.06-.11.15-.11.25s.04.18.11.25l3.52,3.05ZM184.15,11.99c0-.09-.04-.18-.11-.25L170.75.25c-.06-.05-.14-.08-.21-.08h-7.05c-.14,0-.26.08-.31.21-.05.13-.01.27.09.36l12.98,11.24s0,.02,0,.02l-12.98,11.24c-.1.09-.14.23-.09.36.05.13.17.21.31.21h7.05c.08,0,.15-.03.21-.08l13.28-11.49c.07-.06.11-.15.11-.25ZM13.9,7.86s.01-.02.02-.01c.7.62,16.51,14.79,17.27,15.38.67.53,1.45.86,2.47.71,1.31-.16,2.75-1.28,2.75-3.17V.53c0-.2-.16-.35-.35-.35h-4.58c-.2,0-.35.16-.35.35v15.59s-.01.02-.02.01c-.7-.62-16.51-14.79-17.27-15.38-.67-.53-1.45-.86-2.47-.71-1.31.16-2.75,1.28-2.75,3.17v20.26c0,.2.16.35.35.35h4.58c.2,0,.35-.16.35-.35V7.86ZM130.06,7.86s.01-.02.02-.01c.7.62,16.51,14.79,17.27,15.38.67.53,1.45.86,2.47.71,1.31-.16,2.75-1.28,2.75-3.17V.53c0-.2-.16-.35-.35-.35h-4.58c-.2,0-.35.16-.35.35v15.59s-.01.02-.02.01c-.7-.62-16.51-14.79-17.27-15.38-.67-.53-1.45-.86-2.47-.71-1.31.16-2.75,1.28-2.75,3.17v20.26c0,.2.16.35.35.35h4.58c.2,0,.35-.16.35-.35V7.86ZM53.95,24.28c2.85,0,6.03-.17,7.98-1.32,2.6-1.53,3.86-3.66,3.86-6.5V.53c0-.2-.16-.35-.35-.35h-4.62c-.2,0-.35.16-.35.35v15.62c-.05,3.11-3.9,3.14-6.68,3.14h-2.53c-2.78,0-6.63-.03-6.68-3.14V.53c0-.2-.16-.35-.36-.35h-4.62c-.2,0-.35.16-.35.35v15.93c0,2.84,1.26,4.97,3.86,6.5,1.95,1.15,5.13,1.31,7.98,1.32h2.87ZM122.59,23.28c.07.1.08.24.02.35-.06.11-.17.18-.3.18h-5.65c-.11,0-.22-.06-.29-.15l-3.3-4.71s0,0-.01,0h-16.94s0,0-.01,0l-3.31,4.72c-.06.09-.16.14-.27.14h-5.65c-.13,0-.24-.07-.3-.18-.06-.11-.05-.25.02-.35,0,0,14.37-20.51,15.26-21.74C102.76.32,103.65,0,104.61,0c1.06,0,1.88.4,2.66,1.45l15.32,21.83ZM109.65,14.09l-5.03-7.12s-.02,0-.02,0l-5.03,7.12s0,.02.01.02h10.06s.02-.01.01-.02Z"/>
        </g>
        <polygon class="cls-1" points="100.4 69.94 87.7 56.3 0 56.3 0 54.8 88.35 54.8 100.4 67.74 112.44 54.8 206.04 54.8 206.04 56.3 113.09 56.3 100.4 69.94"/>
        <g>
          <path class="cls-1" d="M9.86,107.32l1.13-2.38c1.58,1.43,4.3,2.47,7.04,2.47,3.69,0,5.27-1.43,5.27-3.29,0-5.21-12.92-1.92-12.92-9.84,0-3.29,2.56-6.09,8.17-6.09,2.5,0,5.09.67,6.86,1.89l-1.01,2.44c-1.86-1.19-3.96-1.74-5.85-1.74-3.63,0-5.18,1.52-5.18,3.38,0,5.21,12.92,1.95,12.92,9.78,0,3.26-2.62,6.06-8.26,6.06-3.26,0-6.46-1.1-8.17-2.68Z"/>
          <path class="cls-1" d="M42.43,100.01v9.75h-2.77v-2.13c-.97,1.46-2.77,2.32-5.3,2.32-3.66,0-5.97-1.95-5.97-4.75,0-2.59,1.68-4.72,6.49-4.72h4.63v-.58c0-2.47-1.43-3.9-4.33-3.9-1.92,0-3.87.67-5.12,1.74l-1.22-2.19c1.68-1.34,4.08-2.07,6.67-2.07,4.42,0,6.92,2.13,6.92,6.55ZM39.51,104.82v-2.25h-4.51c-2.89,0-3.72,1.13-3.72,2.5,0,1.61,1.34,2.62,3.57,2.62s3.93-1.01,4.66-2.86Z"/>
          <path class="cls-1" d="M47.18,87.15h2.93v22.61h-2.93v-22.61Z"/>
          <path class="cls-1" d="M69.54,102.66h-13.1c.37,2.83,2.65,4.72,5.85,4.72,1.89,0,3.47-.64,4.66-1.95l1.62,1.89c-1.46,1.71-3.69,2.62-6.37,2.62-5.21,0-8.68-3.44-8.68-8.26s3.44-8.23,8.11-8.23,7.98,3.35,7.98,8.32c0,.24-.03.61-.06.88ZM56.44,100.56h10.36c-.3-2.71-2.35-4.63-5.18-4.63s-4.88,1.89-5.18,4.63Z"/>
          <path class="cls-1" d="M70.94,108.05l1.22-2.32c1.37.98,3.57,1.68,5.67,1.68,2.71,0,3.84-.82,3.84-2.19,0-3.63-10.21-.49-10.21-6.92,0-2.9,2.59-4.85,6.73-4.85,2.1,0,4.48.55,5.88,1.46l-1.25,2.32c-1.46-.95-3.08-1.28-4.66-1.28-2.56,0-3.81.94-3.81,2.22,0,3.81,10.24.7,10.24,6.98,0,2.93-2.68,4.78-6.98,4.78-2.68,0-5.33-.82-6.67-1.89Z"/>
          <path class="cls-1" d="M102.47,100.28l-3.9,3.96v5.52h-3.05v-21.33h3.05v11.91l11.58-11.91h3.47l-9.11,9.6,9.69,11.73h-3.57l-8.17-9.48Z"/>
          <path class="cls-1" d="M115.51,88.61c0-1.07.85-1.92,1.98-1.92s1.98.82,1.98,1.86c0,1.1-.82,1.95-1.98,1.95s-1.98-.82-1.98-1.89ZM116.03,93.61h2.93v16.15h-2.93v-16.15Z"/>
          <path class="cls-1" d="M122.37,101.68c0-4.81,3.56-8.23,8.53-8.23,2.9,0,5.3,1.19,6.58,3.44l-2.22,1.43c-1.04-1.58-2.62-2.32-4.39-2.32-3.17,0-5.55,2.22-5.55,5.67s2.38,5.7,5.55,5.7c1.77,0,3.35-.73,4.39-2.32l2.22,1.4c-1.28,2.25-3.69,3.47-6.58,3.47-4.97,0-8.53-3.44-8.53-8.26Z"/>
          <path class="cls-1" d="M146.65,102.23l-3.35,3.11v4.42h-2.93v-22.61h2.93v14.5l8.81-8.04h3.53l-6.79,6.67,7.47,9.48h-3.6l-6.06-7.53Z"/>
          <path class="cls-1" d="M156.3,101.68c0-4.81,3.56-8.23,8.41-8.23s8.38,3.41,8.38,8.23-3.53,8.26-8.38,8.26-8.41-3.44-8.41-8.26ZM170.14,101.68c0-3.44-2.32-5.67-5.42-5.67s-5.46,2.22-5.46,5.67,2.35,5.7,5.46,5.7,5.42-2.25,5.42-5.7Z"/>
          <path class="cls-1" d="M179.76,92.21v1.4h4.69v2.41h-4.63v13.74h-2.93v-13.74h-2.74v-2.41h2.74v-1.43c0-3.14,1.89-5.21,5.33-5.21,1.25,0,2.47.3,3.29.94l-.88,2.22c-.61-.46-1.4-.76-2.25-.76-1.74,0-2.62.98-2.62,2.83Z"/>
          <path class="cls-1" d="M191.67,92.21v1.4h4.69v2.41h-4.63v13.74h-2.93v-13.74h-2.74v-2.41h2.74v-1.43c0-3.14,1.89-5.21,5.33-5.21,1.25,0,2.47.3,3.29.94l-.88,2.22c-.61-.46-1.4-.76-2.25-.76-1.74,0-2.62.98-2.62,2.83Z"/>
        </g>
      </g>
    </g>
  </g>
</svg>
