<?xml version="1.0" encoding="UTF-8"?>
<svg id="Layer_2" data-name="Layer 2" xmlns="http://www.w3.org/2000/svg" viewBox="0 0 375.67 80.92">
  <defs>
    <style>
      .cls-1 {
        fill: #fff;
      }
    </style>
  </defs>
  <g id="Outlined">
    <g id="options_copy" data-name="options copy">
      <g>
        <g id="Artwork_39" data-name="Artwork 39">
          <path class="cls-1" d="M80.83,33.63h-9.07s-.01,0-.01.01v17.65c0,.19-.15.34-.34.34h-4.38c-.19,0-.34-.15-.34-.34v-17.65s0-.01-.01-.01h-9.04c-.19,0-.34-.15-.34-.34v-3.95c0-.19.15-.34.34-.34h23.2c.19,0,.34.15.34.34v3.95c0,.19-.15.34-.34.34ZM145.27,29h-4.38c-.19,0-.34.15-.34.34v21.96c0,.19.15.34.34.34h4.38c.19,0,.34-.15.34-.34v-21.96c0-.19-.15-.34-.34-.34ZM180.68,51.09c.1.09.13.22.09.35-.05.12-.16.2-.29.2h-6.75c-.08,0-.15-.03-.2-.08l-7.41-6.42c-.07-.06-.11-.15-.11-.24s.04-.18.11-.24l3.37-2.92c.12-.1.29-.1.41,0l10.79,9.33ZM169.48,38.89c.06.05.13.08.2.08s.15-.03.2-.08l10.79-9.33c.1-.09.13-.22.09-.35-.05-.12-.16-.2-.29-.2h-6.75c-.08,0-.15.03-.2.08l-7.41,6.42c-.07.06-.11.15-.11.24s.04.18.11.24l3.37,2.92ZM168.07,40.32c0-.09-.04-.18-.11-.24l-12.72-11c-.06-.05-.13-.08-.2-.08h-6.75c-.13,0-.25.08-.29.2-.05.12-.01.26.09.35l12.43,10.76s0,.02,0,.02l-12.43,10.76c-.1.09-.13.22-.09.35.05.12.16.2.29.2h6.75c.08,0,.15-.03.2-.08l12.72-11c.07-.06.11-.15.11-.24ZM5.06,36.36s.01-.02.02-.01c.67.6,15.81,14.16,16.54,14.73.64.51,1.39.82,2.36.68,1.26-.15,2.64-1.23,2.64-3.03v-19.38c0-.19-.15-.34-.34-.34h-4.38c-.19,0-.34.15-.34.34v14.92s-.01.02-.02.01c-.67-.6-15.81-14.16-16.54-14.73-.64-.51-1.39-.82-2.36-.68-1.26.15-2.64,1.23-2.64,3.03v19.4c0,.19.15.34.34.34h4.38c.19,0,.34-.15.34-.34v-14.94ZM116.28,36.36s.01-.02.02-.01c.67.6,15.81,14.16,16.54,14.73.64.51,1.39.82,2.36.68,1.26-.15,2.64-1.23,2.64-3.03v-19.38c0-.19-.15-.34-.34-.34h-4.38c-.19,0-.34.15-.34.34v14.92s-.01.02-.02.01c-.67-.6-15.81-14.16-16.54-14.73-.64-.51-1.39-.82-2.36-.68-1.26.15-2.64,1.23-2.64,3.03v19.4c0,.19.15.34.34.34h4.38c.19,0,.34-.15.34-.34v-14.94ZM43.41,52.09c2.73,0,5.77-.16,7.64-1.26,2.49-1.47,3.69-3.5,3.69-6.23v-15.26c0-.19-.15-.34-.34-.34h-4.42c-.19,0-.34.15-.34.34v14.96c-.04,2.98-3.73,3.01-6.39,3.01h-2.42c-2.66,0-6.35-.03-6.39-3.01v-14.96c0-.19-.15-.34-.34-.34h-4.42c-.19,0-.34.15-.34.34v15.26c0,2.72,1.21,4.76,3.7,6.23,1.87,1.1,4.91,1.26,7.64,1.26h2.75ZM109.13,51.13c.07.1.08.23.02.34-.05.11-.16.17-.29.17h-5.41c-.11,0-.21-.05-.27-.14l-3.16-4.51s0,0-.01,0h-16.22s0,0-.01,0l-3.17,4.52c-.06.09-.16.14-.26.14h-5.41c-.12,0-.23-.07-.29-.17-.06-.11-.05-.24.02-.34,0,0,13.76-19.64,14.61-20.81s1.7-1.48,2.62-1.48c1.01,0,1.8.38,2.55,1.39l14.67,20.9ZM96.74,42.32l-4.82-6.82s-.02,0-.02,0l-4.82,6.82s0,.02.01.02h9.63s.02-.01.01-.02Z"/>
        </g>
        <polygon class="cls-1" points="211.62 80.92 210.12 80.92 210.12 52.5 223.05 40.46 210.12 28.42 210.12 0 211.62 0 211.62 27.77 225.25 40.46 211.62 53.16 211.62 80.92"/>
        <g>
          <path class="cls-1" d="M246.37,44.95l.78-1.64c1.09.99,2.96,1.7,4.85,1.7,2.54,0,3.63-.99,3.63-2.27,0-3.59-8.9-1.32-8.9-6.78,0-2.27,1.76-4.2,5.63-4.2,1.72,0,3.51.46,4.72,1.3l-.69,1.68c-1.28-.82-2.73-1.2-4.03-1.2-2.5,0-3.57,1.05-3.57,2.33,0,3.59,8.9,1.34,8.9,6.74,0,2.25-1.81,4.18-5.69,4.18-2.25,0-4.45-.76-5.63-1.85Z"/>
          <path class="cls-1" d="M268.82,39.91v6.72h-1.91v-1.47c-.67,1.01-1.91,1.6-3.65,1.6-2.52,0-4.12-1.34-4.12-3.28,0-1.78,1.16-3.25,4.47-3.25h3.19v-.4c0-1.7-.99-2.69-2.98-2.69-1.32,0-2.67.46-3.53,1.2l-.84-1.51c1.15-.92,2.81-1.43,4.6-1.43,3.04,0,4.77,1.47,4.77,4.51ZM266.81,43.22v-1.55h-3.11c-1.99,0-2.56.78-2.56,1.72,0,1.11.92,1.81,2.46,1.81s2.71-.69,3.21-1.97Z"/>
          <path class="cls-1" d="M272.1,31.05h2.02v15.58h-2.02v-15.58Z"/>
          <path class="cls-1" d="M287.51,41.73h-9.03c.25,1.95,1.83,3.25,4.03,3.25,1.3,0,2.39-.44,3.21-1.34l1.11,1.3c-1.01,1.18-2.54,1.81-4.39,1.81-3.59,0-5.98-2.37-5.98-5.69s2.37-5.67,5.58-5.67,5.5,2.31,5.5,5.73c0,.17-.02.42-.04.61ZM278.48,40.28h7.14c-.21-1.87-1.62-3.19-3.57-3.19s-3.36,1.3-3.57,3.19Z"/>
          <path class="cls-1" d="M288.48,45.45l.84-1.6c.94.67,2.46,1.15,3.91,1.15,1.87,0,2.65-.57,2.65-1.51,0-2.5-7.03-.34-7.03-4.77,0-1.99,1.79-3.34,4.64-3.34,1.45,0,3.09.38,4.05,1.01l-.86,1.6c-1.01-.65-2.12-.88-3.21-.88-1.76,0-2.62.65-2.62,1.53,0,2.62,7.05.48,7.05,4.81,0,2.02-1.85,3.3-4.81,3.3-1.85,0-3.67-.57-4.6-1.3Z"/>
          <path class="cls-1" d="M310.21,40.1l-2.69,2.73v3.8h-2.1v-14.7h2.1v8.21l7.98-8.21h2.39l-6.28,6.61,6.68,8.08h-2.46l-5.63-6.53Z"/>
          <path class="cls-1" d="M319.2,32.05c0-.73.59-1.32,1.36-1.32s1.37.57,1.37,1.28c0,.76-.57,1.34-1.37,1.34s-1.36-.57-1.36-1.3ZM319.56,35.5h2.02v11.13h-2.02v-11.13Z"/>
          <path class="cls-1" d="M323.93,41.06c0-3.32,2.46-5.67,5.88-5.67,1.99,0,3.65.82,4.54,2.37l-1.53.99c-.71-1.09-1.8-1.6-3.02-1.6-2.18,0-3.82,1.53-3.82,3.91s1.64,3.93,3.82,3.93c1.22,0,2.31-.5,3.02-1.6l1.53.97c-.88,1.55-2.54,2.39-4.54,2.39-3.42,0-5.88-2.37-5.88-5.69Z"/>
          <path class="cls-1" d="M340.66,41.44l-2.31,2.14v3.04h-2.02v-15.58h2.02v9.99l6.07-5.54h2.44l-4.68,4.6,5.14,6.53h-2.48l-4.18-5.19Z"/>
          <path class="cls-1" d="M347.32,41.06c0-3.32,2.46-5.67,5.79-5.67s5.77,2.35,5.77,5.67-2.44,5.69-5.77,5.69-5.79-2.37-5.79-5.69ZM356.85,41.06c0-2.37-1.6-3.91-3.74-3.91s-3.76,1.53-3.76,3.91,1.62,3.93,3.76,3.93,3.74-1.55,3.74-3.93Z"/>
          <path class="cls-1" d="M363.49,34.53v.97h3.23v1.66h-3.19v9.47h-2.02v-9.47h-1.89v-1.66h1.89v-.99c0-2.16,1.3-3.59,3.67-3.59.86,0,1.7.21,2.27.65l-.61,1.53c-.42-.31-.96-.52-1.55-.52-1.2,0-1.81.67-1.81,1.95Z"/>
          <path class="cls-1" d="M371.7,34.53v.97h3.23v1.66h-3.19v9.47h-2.02v-9.47h-1.89v-1.66h1.89v-.99c0-2.16,1.3-3.59,3.67-3.59.86,0,1.7.21,2.27.65l-.61,1.53c-.42-.31-.96-.52-1.55-.52-1.2,0-1.81.67-1.81,1.95Z"/>
        </g>
      </g>
    </g>
  </g>
</svg>