<?xml version="1.0" encoding="UTF-8"?>
<svg id="Layer_2" xmlns="http://www.w3.org/2000/svg" version="1.1" viewBox="0 0 413.1 80.9">
  <!-- Generator: Adobe Illustrator 30.2.1, SVG Export Plug-In . SVG Version: 2.1.1 Build 1)  -->
  <defs>
    <style>
      .st0 {
        isolation: isolate;
      }

      .st1 {
        fill: #fff;
      }
    </style>
  </defs>
  <g id="SKO">
    <g>
      <g>
        <g id="Artwork_39">
          <path class="st1" d="M80.8,33.6h-9.1s0,0,0,0v17.7c0,.2-.2.3-.3.3h-4.4c-.2,0-.3-.2-.3-.3v-17.7s0,0,0,0h-9c-.2,0-.3-.2-.3-.3v-4c0-.2.2-.3.3-.3h23.2c.2,0,.3.1.3.3v4c0,.2-.2.3-.3.3h0ZM145.3,29h-4.4c-.2,0-.3.1-.3.3v22c0,.2.1.3.3.3h4.4c.2,0,.3-.2.3-.3v-22c0-.2-.1-.3-.3-.3ZM180.7,51.1c.1,0,.1.2,0,.3,0,.1-.2.2-.3.2h-6.8c0,0-.1,0-.2,0l-7.4-6.4c0,0-.1-.2-.1-.2s0-.2.1-.2l3.4-2.9c.1,0,.3,0,.4,0l10.8,9.3h0ZM169.5,38.9c0,0,.1,0,.2,0s.1,0,.2,0l10.8-9.3c.1,0,.1-.2,0-.4,0-.1-.2-.2-.3-.2h-6.8c0,0-.1,0-.2,0l-7.4,6.4c0,0-.1.2-.1.2s0,.2.1.2l3.4,2.9h0ZM168.1,40.3c0,0,0-.2-.1-.2l-12.7-11c0,0-.1,0-.2,0h-6.8c-.1,0-.2,0-.3.2,0,.1,0,.3,0,.4l12.4,10.8h0s-12.4,10.8-12.4,10.8c-.1,0-.1.2,0,.3,0,.1.2.2.3.2h6.8c0,0,.1,0,.2,0l12.7-11c0,0,.1-.2.1-.2h0ZM5.1,36.4s0,0,0,0c.7.6,15.8,14.2,16.5,14.7.6.5,1.4.8,2.4.7,1.3-.2,2.6-1.2,2.6-3v-19.4c0-.2-.1-.3-.3-.3h-4.4c-.2,0-.3.1-.3.3v14.9s0,0,0,0c-.7-.6-15.8-14.2-16.5-14.7-.6-.5-1.4-.8-2.4-.7-1.3.1-2.6,1.2-2.6,3v19.4c0,.2.2.3.3.3h4.4c.2,0,.3-.2.3-.3,0,0,0-14.9,0-14.9ZM116.3,36.4s0,0,0,0c.7.6,15.8,14.2,16.5,14.7.6.5,1.4.8,2.4.7,1.3-.2,2.6-1.2,2.6-3v-19.4c0-.2-.1-.3-.3-.3h-4.4c-.2,0-.3.1-.3.3v14.9s0,0,0,0c-.7-.6-15.8-14.2-16.5-14.7-.6-.5-1.4-.8-2.4-.7-1.3.1-2.6,1.2-2.6,3v19.4c0,.2.2.3.3.3h4.4c.2,0,.3-.2.3-.3v-14.9h0ZM43.4,52.1c2.7,0,5.8-.2,7.6-1.3,2.5-1.5,3.7-3.5,3.7-6.2v-15.3c0-.2-.2-.3-.3-.3h-4.4c-.2,0-.3.1-.3.3v15c0,3-3.7,3-6.4,3h-2.4c-2.7,0-6.3,0-6.4-3v-15c0-.2-.2-.3-.3-.3h-4.4c-.2,0-.3.1-.3.3v15.3c0,2.7,1.2,4.8,3.7,6.2,1.9,1.1,4.9,1.3,7.6,1.3h2.8,0ZM109.1,51.1c0,0,0,.2,0,.3,0,.1-.2.2-.3.2h-5.4c-.1,0-.2,0-.3-.1l-3.2-4.5h-16.2l-3.2,4.5c0,0-.2.1-.3.1h-5.4c-.1,0-.2,0-.3-.2,0-.1,0-.2,0-.3,0,0,13.8-19.6,14.6-20.8s1.7-1.5,2.6-1.5,1.8.4,2.6,1.4l14.7,20.9h0ZM96.7,42.3l-4.8-6.8h0l-4.8,6.8s0,0,0,0h9.6s0,0,0,0h0Z"/>
        </g>
        <polygon class="st1" points="211.4 80.9 210.4 80.9 210.4 52.6 223.4 40.5 210.4 28.3 210.4 0 211.4 0 211.4 27.9 224.9 40.5 211.4 53 211.4 80.9"/>
      </g>
      <g class="st0">
        <g class="st0">
          <path class="st1" d="M246.6,49.4l1.5-3.3c1.8,1.5,4.8,2.5,7.6,2.5s5.1-1.3,5.1-3c0-5-13.7-1.7-13.7-10.3s3-6.9,9.3-6.9,5.7.7,7.7,2l-1.3,3.3c-2.1-1.2-4.3-1.8-6.4-1.8-3.6,0-5,1.4-5,3.1,0,4.9,13.7,1.7,13.7,10.2s-3,6.8-9.3,6.8-7.2-1.1-9.1-2.8Z"/>
        </g>
        <g class="st0">
          <path class="st1" d="M277.3,42.2l-3.7,3.8v5.9h-4.3v-23h4.3v11.8l11.4-11.8h4.8l-9.7,10.3,10.3,12.7h-5l-8.1-9.6Z"/>
        </g>
        <g class="st0">
          <path class="st1" d="M289.7,40.4c0-6.8,5.3-11.8,12.4-11.8s12.4,5,12.4,11.8-5.3,11.8-12.4,11.8-12.4-5-12.4-11.8ZM310.2,40.4c0-4.7-3.5-8.1-8.1-8.1s-8.1,3.4-8.1,8.1,3.5,8.1,8.1,8.1,8.1-3.4,8.1-8.1Z"/>
        </g>
        <g class="st0">
          <path class="st1" d="M334.6,32.4v7h11.1v3.6h-11.1v8.8h-4.3v-23h16.8v3.6h-12.5Z"/>
        </g>
        <g class="st0">
          <path class="st1" d="M363.4,43.7v8.1h-4.3v-8.1l-9.1-15h4.6l6.7,11.2,6.8-11.2h4.2l-9,14.9Z"/>
        </g>
        <g class="st0">
          <path class="st1" d="M391.3,48.2v3.6h-17v-2.9l9.1-8.7c2.2-2.1,2.6-3.5,2.6-4.8,0-2.1-1.4-3.3-4.3-3.3s-4.1.8-5.4,2.4l-3-2.3c1.8-2.4,5-3.8,8.8-3.8s8.2,2.5,8.2,6.6-.6,4.3-3.8,7.3l-6.2,5.9h10.9Z"/>
        </g>
        <g class="st0">
          <path class="st1" d="M411.9,28.8v2.9l-9,20.2h-4.6l8.7-19.4h-9.1v3.9h-4v-7.5h17.9Z"/>
        </g>
      </g>
    </g>
  </g>
</svg>